<svg id="atex-logo" xmlns="http://www.w3.org/2000/svg" viewBox="0 0 150 130"><title>ATEX-Logo</title><g id="layer1"><g id="path4212"><path d="M112.42,130l-75-.1L0,64.9,37.58,0l75,.1L150,65.1ZM42.5,121.13l64.86.09,32.5-56.14L107.5,8.87,42.64,8.78,10.14,64.92Z"/></g><g id="path4214"><path d="M54,25.53c-10.86,0-19.74,9.39-19.74,20.87A21.14,21.14,0,0,0,44.52,64.7,21.14,21.14,0,0,0,34.24,83c0,11.48,8.88,20.87,19.74,20.87A19.17,19.17,0,0,0,68.1,97.55l-5.22-5.23A12.13,12.13,0,0,1,54,96.23c-6.94,0-12.5-5.88-12.5-13.22s5.37-13,12.14-13.22l0-.09h8.83v-10H53.6l0-.09c-6.77-.2-12.14-6-12.14-13.21S47,33.18,54,33.18a12.16,12.16,0,0,1,8.9,3.9l5.22-5.22A19.17,19.17,0,0,0,54,25.53ZM77.77,60.62v7.44h2.52a2.89,2.89,0,0,1,3,1.59l7.4,12.83L83.18,95.55a2.89,2.89,0,0,1-3,1.59H77.63v7.45h2.53a11,11,0,0,0,9.46-5.32L95,89.94l5.39,9.33a11,11,0,0,0,9.47,5.32h2.52V97.14h-2.52a2.9,2.9,0,0,1-3-1.59L99.31,82.48l7.4-12.83a2.89,2.89,0,0,1,3-1.59h2.53V60.62h-2.53a11,11,0,0,0-9.47,5.31L95,75l-5.25-9.11a11,11,0,0,0-9.47-5.31Z"/></g></g></svg>